<?xml version="1.0" encoding="UTF-8"?>
<!DOCTYPE svg PUBLIC "-//W3C//DTD SVG 1.1//EN" "http://www.w3.org/Graphics/SVG/1.1/DTD/svg11.dtd">
<!-- Creator: CorelDRAW -->
<svg xmlns="http://www.w3.org/2000/svg" xml:space="preserve" width="273px" height="80px" version="1.1" style="shape-rendering:geometricPrecision; text-rendering:geometricPrecision; image-rendering:optimizeQuality; fill-rule:evenodd; clip-rule:evenodd"
viewBox="0 0 24.64 7.21"
 xmlns:xlink="http://www.w3.org/1999/xlink"
 xmlns:xodm="http://www.corel.com/coreldraw/odm/2003">
 <defs>
  <style type="text/css">
   <![CDATA[
    .fil1 {fill:#436681;fill-rule:nonzero}
    .fil0 {fill:#D4B499;fill-rule:nonzero}
   ]]>
  </style>
 </defs>
 <g id="Camada_x0020_1">
  <metadata id="CorelCorpID_0Corel-Layer"/>
  <path class="fil0" d="M2.47 3.48c-0.06,-0.06 -0.06,-0.15 -0.01,-0.21 0.06,-0.06 0.16,-0.06 0.21,0 0.1,0.08 0.22,0.18 0.37,0.26 0.15,0.07 0.34,0.12 0.57,0.12 0.22,0 0.41,-0.05 0.56,-0.12 0.16,-0.08 0.28,-0.18 0.37,-0.26 0.06,-0.06 0.15,-0.06 0.21,0 0.05,0.06 0.05,0.15 -0.01,0.21 -0.1,0.1 -0.25,0.22 -0.44,0.31 -0.15,0.08 -0.33,0.14 -0.54,0.16l0 1.51c0,0.08 -0.07,0.15 -0.15,0.15 -0.09,0 -0.15,-0.07 -0.15,-0.15l0 -1.51c-0.22,-0.02 -0.4,-0.08 -0.55,-0.16 -0.19,-0.09 -0.34,-0.21 -0.44,-0.31zm1.14 -3.48c0.99,0 1.89,0.4 2.54,1.06 0.66,0.65 1.06,1.55 1.06,2.55 0,0.99 -0.4,1.89 -1.06,2.55 -0.65,0.65 -1.55,1.05 -2.54,1.05 -1,0 -1.9,-0.4 -2.55,-1.05 -0.66,-0.66 -1.06,-1.56 -1.06,-2.55 0,-1 0.4,-1.9 1.06,-2.55 0.65,-0.66 1.55,-1.06 2.55,-1.06zm2.33 1.27c-0.59,-0.6 -1.42,-0.97 -2.33,-0.97 -0.92,0 -1.74,0.37 -2.34,0.97 -0.6,0.6 -0.97,1.42 -0.97,2.34 0,0.91 0.37,1.74 0.97,2.33 0.6,0.6 1.42,0.97 2.34,0.97 0.91,0 1.74,-0.37 2.33,-0.97 0.6,-0.59 0.97,-1.42 0.97,-2.33 0,-0.92 -0.37,-1.74 -0.97,-2.34zm-4.55 1.85c0,0.09 -0.06,0.15 -0.15,0.15 -0.08,0 -0.14,-0.07 -0.14,-0.15 0,-0.07 0,-0.13 0.01,-0.19 0.03,-0.26 0.14,-0.47 0.29,-0.61 0.16,-0.14 0.36,-0.21 0.59,-0.21 0.05,0 0.1,0.01 0.14,0.01 0.4,0.06 0.66,0.27 0.9,0.47 0.19,0.17 0.37,0.31 0.57,0.31l0.01 0c0.2,0 0.38,-0.14 0.57,-0.31 0.24,-0.2 0.5,-0.41 0.9,-0.47 0.04,0 0.09,-0.01 0.14,-0.01 0.23,0 0.43,0.07 0.59,0.21 0.15,0.14 0.26,0.35 0.29,0.61 0.01,0.06 0.01,0.12 0.02,0.19 0,0.08 -0.07,0.15 -0.15,0.15 -0.09,0 -0.15,-0.06 -0.15,-0.15 0,-0.05 -0.01,-0.1 -0.01,-0.15 -0.03,-0.19 -0.1,-0.33 -0.2,-0.42 -0.1,-0.09 -0.24,-0.14 -0.39,-0.14 -0.03,0 -0.07,0 -0.1,0.01 -0.31,0.04 -0.54,0.23 -0.75,0.4 -0.24,0.2 -0.45,0.38 -0.76,0.38l-0.01 0c-0.3,0 -0.52,-0.18 -0.76,-0.38 -0.21,-0.17 -0.44,-0.36 -0.75,-0.4 -0.03,-0.01 -0.07,-0.01 -0.1,-0.01 -0.15,0 -0.29,0.05 -0.39,0.14 -0.1,0.09 -0.17,0.23 -0.2,0.42 0,0.05 -0.01,0.1 -0.01,0.15z"/>
  <g id="_1956666016864">
   <path class="fil1" d="M8.66 2.2c0.49,0 0.92,-0.39 0.92,-0.89 0,-0.49 -0.43,-0.88 -0.92,-0.88l-0.63 0 0 1.77 0.63 0zm-0.38 -0.21l0 -1.35 0.38 0c0.32,0 0.68,0.28 0.68,0.67 0,0.33 -0.29,0.68 -0.68,0.68l-0.38 0zm1.81 0.21l0 -0.91c0.15,-0.13 0.29,-0.22 0.45,-0.22 0.09,0 0.14,0.02 0.15,0.03l0.02 0.13 0.2 0 0 -0.31c-0.05,-0.03 -0.17,-0.08 -0.37,-0.08 -0.15,0 -0.33,0.1 -0.47,0.21l-0.03 -0.2 -0.2 0 0 1.35 0.25 0zm0.78 -0.15c0,0.09 0.08,0.16 0.17,0.16 0.1,0 0.18,-0.07 0.18,-0.16 0,-0.08 -0.08,-0.15 -0.18,-0.15 -0.09,0 -0.17,0.07 -0.17,0.15zm2.25 -0.71l-0.02 0 -0.42 -0.91 -0.44 0 0 1.77 0.24 0 0 -1.57 0.02 0 0.43 0.92 0.37 0 0.42 -0.92 0.02 0 0 1.57 0.25 0 0 -1.77 -0.44 0 -0.43 0.91zm1.56 0.38l0.87 0 0.14 0.48 0.24 0 -0.53 -1.77 -0.58 0 -0.53 1.77 0.24 0 0.15 -0.48zm0.32 -1.08l0.23 0 0.25 0.86 -0.74 0 0.26 -0.86zm1.43 -0.21l-0.24 0 0 0.97c0,0.55 0.39,0.81 0.79,0.81 0.4,0 0.79,-0.26 0.79,-0.81l0 -0.97 -0.25 0 0 0.97c0,0.37 -0.22,0.57 -0.54,0.57 -0.32,0 -0.55,-0.2 -0.55,-0.57l0 -0.97zm3.03 1.54l-0.17 0c-0.04,0 -0.08,-0.04 -0.1,-0.1l-0.12 -0.25c0.24,-0.08 0.41,-0.31 0.41,-0.58 0,-0.34 -0.27,-0.61 -0.61,-0.61l-0.8 0 0 1.77 0.24 0 0 -0.54 0.45 0c0.04,0 0.08,0.03 0.1,0.1l0.12 0.23c0.06,0.14 0.18,0.22 0.31,0.22l0.17 -0.03 0 -0.21zm-0.59 -1.31c0.2,0 0.37,0.18 0.37,0.38 0,0.2 -0.18,0.39 -0.37,0.39l-0.56 0 0 -0.77 0.56 0zm1.16 -0.23l-0.24 0 0 1.77 0.24 0 0 -1.77zm0.07 -0.43l-0.22 0 -0.16 0.28 0.16 0 0.22 -0.28zm1.55 0.88l0.21 0 0 -0.29c-0.19,-0.12 -0.39,-0.17 -0.6,-0.17 -0.49,0 -0.92,0.4 -0.92,0.89 0,0.5 0.43,0.9 0.92,0.9 0.27,0 0.52,-0.12 0.7,-0.31l-0.18 -0.18c-0.12,0.15 -0.3,0.25 -0.52,0.25 -0.33,0 -0.68,-0.27 -0.68,-0.66 0,-0.39 0.35,-0.65 0.68,-0.65 0.14,0 0.26,0.02 0.36,0.07l0.03 0.15zm0.86 -0.45l-0.24 0 0 1.77 0.24 0 0 -1.77zm1.21 0.23c0.32,0 0.68,0.26 0.68,0.65 0,0.33 -0.29,0.66 -0.68,0.66 -0.34,0 -0.68,-0.27 -0.68,-0.66 0,-0.33 0.29,-0.65 0.68,-0.65zm0 -0.24c-0.5,0 -0.92,0.4 -0.92,0.89 0,0.5 0.42,0.9 0.92,0.9 0.49,0 0.92,-0.4 0.92,-0.9 0,-0.49 -0.43,-0.89 -0.92,-0.89zm-15.69 4.01l0 0.21 2.65 0 0 -0.21 -2.65 0zm0.75 -1.34l0.51 0 0 -0.22 -1.26 0 0 0.22 0.51 0 0 1.07 0.24 0 0 -1.07zm1.23 -0.23c-0.36,0 -0.67,0.3 -0.67,0.65 0,0.36 0.31,0.66 0.67,0.66 0.36,0 0.67,-0.3 0.67,-0.66 0,-0.35 -0.31,-0.65 -0.67,-0.65l0 0zm0 0.24c0.23,0 0.43,0.19 0.43,0.41 0,0.23 -0.2,0.42 -0.43,0.42 -0.23,0 -0.43,-0.19 -0.43,-0.42 0,-0.22 0.2,-0.41 0.43,-0.41zm2.37 1.31l-0.17 0c-0.04,0 -0.08,-0.04 -0.1,-0.1l-0.12 -0.25c0.24,-0.08 0.41,-0.31 0.41,-0.58 0,-0.34 -0.27,-0.61 -0.61,-0.61l-0.8 0 0 1.77 0.24 0 0 -0.54 0.45 0c0.04,0 0.08,0.04 0.1,0.1l0.11 0.23c0.07,0.14 0.19,0.22 0.32,0.22l0.17 -0.02 0 -0.22zm-0.59 -1.31c0.2,0 0.37,0.18 0.37,0.38 0,0.2 -0.18,0.39 -0.37,0.39l-0.56 0 0 -0.77 0.56 0zm2.28 1.31l-0.17 0c-0.04,0 -0.08,-0.04 -0.1,-0.1l-0.12 -0.25c0.24,-0.08 0.41,-0.31 0.41,-0.58 0,-0.34 -0.27,-0.61 -0.61,-0.61l-0.8 0 0 1.77 0.24 0 0 -0.54 0.45 0c0.04,0 0.08,0.04 0.1,0.1l0.12 0.23c0.06,0.14 0.18,0.22 0.31,0.22l0.17 -0.02 0 -0.22zm-0.59 -1.31c0.2,0 0.37,0.18 0.37,0.38 0,0.2 -0.18,0.39 -0.37,0.39l-0.56 0 0 -0.77 0.56 0zm1.14 1.34l0 -0.61 0.84 0 0 -0.2 -0.84 0 0 -0.57 1.03 0 0 -0.19 -1.28 0 0 1.77 1.36 0 0 -0.2 -1.11 0zm2.2 -1.34c0.14,0 0.3,0.02 0.43,0.08l0.03 0.14 0.21 0 0 -0.29c-0.19,-0.12 -0.46,-0.17 -0.67,-0.17 -0.3,0 -0.74,0.14 -0.74,0.49 0,0.4 0.42,0.48 0.78,0.48 0.27,0 0.46,0.06 0.46,0.28 0,0.15 -0.19,0.3 -0.52,0.3 -0.27,0 -0.48,-0.1 -0.64,-0.25l-0.14 0.21c0.19,0.17 0.45,0.28 0.79,0.28 0.37,0 0.78,-0.21 0.78,-0.54 0,-0.43 -0.35,-0.53 -0.75,-0.53 -0.26,0 -0.49,-0.05 -0.49,-0.23 0,-0.14 0.23,-0.25 0.47,-0.25l0 0z"/>
   <path class="fil0" d="M19.05 7.13l0 -0.56 -0.09 0 0 0.64 0.47 0 0 -0.08 -0.38 0zm-0.7 -0.48l0.08 0 0.09 0.31 -0.26 0 0.09 -0.31zm-0.11 0.38l0.31 0 0.05 0.18 0.09 0 -0.19 -0.64 -0.21 0 -0.19 0.64 0.09 0 0.05 -0.18zm-0.58 0.01l0.16 0 0 -0.47 -0.08 0 0 0.39 -0.02 0 -0.15 -0.39 -0.17 0 0 0.47 0.09 0 0 -0.39 0.02 0 0.15 0.39zm-0.58 -0.38c0.09,0 0.16,0.06 0.16,0.14 0,0.09 -0.07,0.15 -0.16,0.15 -0.08,0 -0.15,-0.06 -0.15,-0.15 0,-0.08 0.07,-0.14 0.15,-0.14zm0 -0.09c-0.12,0 -0.24,0.11 -0.24,0.23 0,0.13 0.12,0.24 0.24,0.24 0.13,0 0.25,-0.11 0.25,-0.24 0,-0.12 -0.12,-0.23 -0.25,-0.23zm-0.23 0.56l0 0.08 0.97 0 0 -0.08 -0.97 0zm-0.59 -0.23l0 0 -0.15 -0.33 -0.16 0 0 0.64 0.09 0 0 -0.56 0 0 0.16 0.33 0.13 0 0.15 -0.33 0.01 0 0 0.56 0.08 0 0 -0.64 -0.15 0 -0.16 0.33zm-0.8 -0.24c0.07,0 0.14,0.06 0.14,0.13 0,0.08 -0.07,0.14 -0.14,0.14l-0.19 0 0 -0.27 0.19 0zm0.21 0.46l-0.06 0c-0.01,0 -0.02,-0.01 -0.03,-0.03l-0.04 -0.09c0.08,-0.03 0.14,-0.11 0.14,-0.21 0,-0.12 -0.1,-0.22 -0.22,-0.22l-0.28 0 0 0.64 0.09 0 0 -0.2 0.16 0c0.01,0 0.02,0.02 0.03,0.04l0.04 0.08c0.03,0.05 0.07,0.08 0.11,0.08l0.06 -0.01 0 -0.08zm-1.09 -0.55c-0.17,0 -0.33,0.14 -0.33,0.32 0,0.18 0.16,0.32 0.33,0.32 0.18,0 0.33,-0.14 0.33,-0.32 0,-0.18 -0.15,-0.32 -0.33,-0.32zm0 0.09c0.12,0 0.24,0.09 0.24,0.23 0,0.12 -0.1,0.23 -0.24,0.23 -0.12,0 -0.24,-0.09 -0.24,-0.23 0,-0.12 0.1,-0.23 0.24,-0.23zm-1.04 0.18l0 -0.27 -0.09 0 0 0.64 0.09 0 0 -0.29 0.36 0 0 0.29 0.09 0 0 -0.64 -0.09 0 0 0.27 -0.36 0zm-0.96 -0.19l0.08 0 0.09 0.31 -0.26 0 0.09 -0.31zm-0.11 0.38l0.31 0 0.05 0.18 0.09 0 -0.19 -0.64 -0.21 0 -0.19 0.64 0.09 0 0.05 -0.18zm-0.41 -0.46l-0.08 0 0 0.64 0.08 0 0 -0.64zm-0.59 0.09c0.08,0 0.14,0.06 0.14,0.13 0,0.08 -0.07,0.14 -0.14,0.14l-0.19 0 0 -0.27 0.19 0zm-0.28 0.55l0.09 0 0 -0.2 0.19 0c0.13,0 0.22,-0.1 0.22,-0.22 0,-0.12 -0.09,-0.22 -0.22,-0.22l-0.28 0 0 0.64zm-0.61 -0.56l0.08 0 0.09 0.31 -0.26 0 0.09 -0.31zm-0.11 0.38l0.31 0 0.05 0.18 0.09 0 -0.19 -0.64 -0.21 0 -0.19 0.64 0.08 0 0.06 -0.18zm-0.59 -0.37c0.07,0 0.13,0.06 0.13,0.13 0,0.08 -0.06,0.14 -0.13,0.14l-0.2 0 0 -0.27 0.2 0zm0.21 0.46l-0.06 0c-0.02,0 -0.03,-0.01 -0.04,-0.03l-0.04 -0.09c0.09,-0.03 0.15,-0.11 0.15,-0.21 0,-0.12 -0.1,-0.22 -0.22,-0.22l-0.29 0 0 0.64 0.09 0 0 -0.2 0.16 0c0.01,0 0.03,0.02 0.04,0.04l0.04 0.08c0.02,0.05 0.06,0.08 0.11,0.08l0.06 -0.01 0 -0.08zm-1.17 0.02l0 -0.22 0.3 0 0 -0.07 -0.3 0 0 -0.21 0.37 0 0 -0.07 -0.46 0 0 0.64 0.49 0 0 -0.07 -0.4 0zm-0.58 -0.49l0.23 0 0 -0.08 -0.54 0 0 0.08 0.23 0 0 0.56 0.08 0 0 -0.56z"/>
   <path class="fil0" d="M16.56 5.98l0 -0.22 0.31 0 0 -0.06 -0.31 0 0 -0.21 0.37 0 0 -0.07 -0.45 0 0 0.64 0.48 0 0 -0.08 -0.4 0zm-0.95 -0.48l0.08 0 0.09 0.31 -0.26 0 0.09 -0.31zm-0.12 0.38l0.32 0 0.05 0.18 0.08 0 -0.19 -0.64 -0.2 0 -0.19 0.64 0.08 0 0.05 -0.18zm-0.4 -0.46l-0.09 0 0 0.64 0.09 0 0 -0.64zm-0.86 0.32c0,-0.14 0.12,-0.24 0.24,-0.24 0.05,0 0.1,0.01 0.13,0.03l0.01 0.06 0.08 0 0 -0.11c-0.07,-0.04 -0.14,-0.06 -0.22,-0.06 -0.17,0 -0.33,0.14 -0.33,0.32 0,0.18 0.16,0.32 0.33,0.32 0.1,0 0.19,-0.04 0.25,-0.11l0 -0.26 -0.29 0 0 0.08 0.21 0 0 0.14c-0.05,0.04 -0.1,0.06 -0.17,0.06 -0.12,0 -0.24,-0.09 -0.24,-0.23zm-0.67 -0.32c-0.17,0 -0.33,0.14 -0.33,0.32 0,0.18 0.16,0.32 0.33,0.32 0.18,0 0.33,-0.14 0.33,-0.32 0,-0.18 -0.15,-0.32 -0.33,-0.32zm0 0.09c0.12,0 0.24,0.09 0.24,0.23 0,0.12 -0.1,0.23 -0.24,0.23 -0.12,0 -0.24,-0.09 -0.24,-0.23 0,-0.12 0.1,-0.23 0.24,-0.23zm-0.93 0.47l0 -0.56 -0.09 0 0 0.64 0.47 0 0 -0.08 -0.38 0zm-0.68 -0.56c-0.18,0 -0.33,0.14 -0.33,0.32 0,0.18 0.15,0.32 0.33,0.32 0.17,0 0.32,-0.14 0.32,-0.32 0,-0.18 -0.15,-0.32 -0.32,-0.32zm0 0.09c0.11,0 0.24,0.09 0.24,0.23 0,0.12 -0.1,0.23 -0.24,0.23 -0.12,0 -0.25,-0.09 -0.25,-0.23 0,-0.12 0.11,-0.23 0.25,-0.23zm-0.69 0.08l0.08 0 0 -0.11c-0.07,-0.04 -0.14,-0.06 -0.22,-0.06 -0.17,0 -0.33,0.14 -0.33,0.32 0,0.18 0.16,0.32 0.33,0.32 0.1,0 0.19,-0.04 0.25,-0.11l-0.06 -0.06c-0.04,0.05 -0.11,0.08 -0.19,0.08 -0.12,0 -0.24,-0.09 -0.24,-0.23 0,-0.14 0.12,-0.24 0.24,-0.24 0.05,0 0.1,0.01 0.13,0.03l0.01 0.06zm-1.11 0.39l0 -0.22 0.3 0 0 -0.06 -0.3 0 0 -0.21 0.37 0 0 -0.07 -0.46 0 0 0.64 0.48 0 0 -0.08 -0.39 0zm-0.45 0l-0.02 0 -0.26 -0.56 -0.17 0 0 0.64 0.09 0 0 -0.56 0.02 0 0.26 0.56 0.17 0 0 -0.64 -0.09 0 0 0.56zm-0.72 -0.56l-0.09 0 0 0.64 0.09 0 0 -0.64zm-0.86 0.32c0,-0.14 0.12,-0.24 0.24,-0.24 0.05,0 0.09,0.01 0.13,0.03l0.01 0.06 0.08 0 0 -0.11c-0.07,-0.04 -0.14,-0.06 -0.22,-0.06 -0.17,0 -0.33,0.14 -0.33,0.32 0,0.18 0.16,0.32 0.33,0.32 0.1,0 0.19,-0.04 0.25,-0.11l0 -0.26 -0.29 0 0 0.08 0.2 0 0 0.14c-0.04,0.04 -0.09,0.06 -0.16,0.06 -0.12,0 -0.24,-0.09 -0.24,-0.23z"/>
  </g>
 </g>
</svg>
