<?xml version="1.0" encoding="UTF-8"?>
<!DOCTYPE svg PUBLIC "-//W3C//DTD SVG 1.1//EN" "http://www.w3.org/Graphics/SVG/1.1/DTD/svg11.dtd">
<!-- Creator: CorelDRAW -->
<svg xmlns="http://www.w3.org/2000/svg" xml:space="preserve" width="292px" height="84px" version="1.1" style="shape-rendering:geometricPrecision; text-rendering:geometricPrecision; image-rendering:optimizeQuality; fill-rule:evenodd; clip-rule:evenodd"
viewBox="0 0 292 83.67"
 xmlns:xlink="http://www.w3.org/1999/xlink"
 xmlns:xodm="http://www.corel.com/coreldraw/odm/2003">
 <defs>
  <style type="text/css">
   <![CDATA[
    .fil1 {fill:#436681;fill-rule:nonzero}
    .fil0 {fill:#D4B499;fill-rule:nonzero}
   ]]>
  </style>
 </defs>
 <g id="Camada_x0020_1">
  <metadata id="CorelCorpID_0Corel-Layer"/>
  <g id="_2015050157040">
   <path class="fil0" d="M28.62 40.37c-0.68,-0.66 -0.7,-1.76 -0.03,-2.44 0.67,-0.69 1.76,-0.7 2.45,-0.04 1.05,1.02 2.44,2.16 4.22,3.04 1.77,0.86 3.94,1.48 6.57,1.48 2.64,0 4.81,-0.62 6.58,-1.48 1.78,-0.88 3.18,-2.02 4.22,-3.04 0.69,-0.66 1.79,-0.65 2.45,0.04 0.67,0.68 0.65,1.78 -0.03,2.44 -1.25,1.22 -2.94,2.59 -5.12,3.66 -1.8,0.88 -3.91,1.55 -6.36,1.77l0 17.57c0,0.95 -0.78,1.73 -1.74,1.73 -0.95,0 -1.73,-0.78 -1.73,-1.73l0 -17.57c-2.45,-0.22 -4.56,-0.89 -6.36,-1.77 -2.18,-1.07 -3.87,-2.44 -5.12,-3.66zm13.21 -40.37c11.56,0 22.02,4.68 29.59,12.25 7.57,7.57 12.25,18.03 12.25,29.59 0,11.55 -4.68,22.01 -12.25,29.58 -7.57,7.57 -18.03,12.25 -29.59,12.25 -11.55,0 -22.01,-4.68 -29.58,-12.25 -7.57,-7.57 -12.25,-18.03 -12.25,-29.58 0,-11.56 4.68,-22.01 12.25,-29.59 7.57,-7.57 18.03,-12.25 29.58,-12.25zm27.13 14.71c-6.94,-6.94 -16.53,-11.24 -27.13,-11.24 -10.59,0 -20.18,4.29 -27.12,11.24 -6.94,6.94 -11.24,16.53 -11.24,27.13 0,10.59 4.29,20.18 11.24,27.12 6.94,6.95 16.53,11.24 27.12,11.24 10.6,0 20.19,-4.29 27.13,-11.24 6.95,-6.94 11.24,-16.53 11.24,-27.12 0,-10.6 -4.29,-20.19 -11.24,-27.13zm-52.78 21.53c-0.01,0.96 -0.79,1.73 -1.74,1.73 -0.96,-0.01 -1.73,-0.79 -1.72,-1.74 0,-0.79 0.05,-1.54 0.15,-2.23 0.41,-3.06 1.64,-5.42 3.43,-7.03 1.81,-1.64 4.17,-2.47 6.81,-2.45 0.55,0 1.11,0.04 1.66,0.11 4.55,0.62 7.59,3.15 10.39,5.48 2.26,1.87 4.33,3.59 6.67,3.57l0.01 0c2.34,0.02 4.41,-1.7 6.67,-3.57 2.8,-2.33 5.84,-4.86 10.39,-5.48 0.55,-0.07 1.11,-0.11 1.66,-0.11 2.64,-0.02 5,0.81 6.81,2.45 1.79,1.61 3.02,3.97 3.43,7.03 0.1,0.69 0.15,1.44 0.15,2.23 0.01,0.95 -0.76,1.73 -1.72,1.74 -0.95,0 -1.73,-0.77 -1.73,-1.73 -0.01,-0.61 -0.05,-1.21 -0.13,-1.78 -0.29,-2.2 -1.12,-3.84 -2.31,-4.92 -1.17,-1.04 -2.72,-1.58 -4.49,-1.56 -0.38,0 -0.78,0.03 -1.21,0.09 -3.57,0.48 -6.21,2.67 -8.64,4.69 -2.76,2.3 -5.29,4.4 -8.88,4.38l-0.01 0c-3.59,0.02 -6.12,-2.08 -8.88,-4.38 -2.43,-2.02 -5.07,-4.21 -8.64,-4.69 -0.43,-0.06 -0.83,-0.09 -1.21,-0.09 -1.77,-0.02 -3.32,0.52 -4.49,1.56 -1.19,1.08 -2.02,2.72 -2.31,4.92 -0.08,0.57 -0.12,1.17 -0.12,1.78z"/>
   <path class="fil1" d="M103.3 32.14c5.84,0 10.86,-4.65 10.86,-10.49 0,-5.82 -5.02,-10.47 -10.86,-10.47l-7.39 0 0 20.96 7.39 0zm-4.54 -2.48l0 -16 4.54 0c3.85,0 8.01,3.31 8.01,7.99 0,3.9 -3.39,8.01 -8.01,8.01l-4.54 0zm21.38 2.48l0 -10.81c1.83,-1.54 3.42,-2.59 5.42,-2.59 0.97,0 1.57,0.23 1.77,0.37l0.2 1.59 2.36 0 0 -3.65c-0.62,-0.37 -2.05,-0.96 -4.33,-0.96 -1.82,0 -3.93,1.11 -5.56,2.42l-0.43 -2.34 -2.28 0 0 15.97 2.85 0zm9.29 -1.74c0,1.03 0.89,1.82 2,1.82 1.17,0 2.08,-0.79 2.08,-1.82 0,-1.03 -0.91,-1.85 -2.08,-1.85 -1.11,0 -2,0.82 -2,1.85zm26.6 -8.38l-0.29 0 -4.98 -10.84 -5.17 0 0 20.96 2.86 0 0 -18.53 0.25 0 5.02 10.83 4.36 0 4.99 -10.83 0.29 0 0 18.53 2.85 0 0 -20.96 -5.16 0 -5.02 10.84zm18.36 4.39l10.26 0 1.71 5.73 2.85 0 -6.27 -20.96 -6.84 0 -6.27 20.96 2.85 0 1.71 -5.73zm3.79 -12.66l2.68 0 3.02 10.09 -8.72 0 3.02 -10.09zm16.93 -2.57l-2.85 0 0 11.52c0,6.5 4.56,9.52 9.29,9.52 4.74,0 9.3,-3.02 9.3,-9.52l0 -11.52 -2.85 0 0 11.52c0,4.31 -2.65,6.67 -6.47,6.67 -3.8,0 -6.42,-2.36 -6.42,-6.67l0 -11.52zm35.72 18.19l-1.99 0c-0.46,0 -0.89,-0.4 -1.2,-1.11l-1.34 -2.96c2.79,-1 4.82,-3.71 4.82,-6.85 0,-4.02 -3.25,-7.27 -7.27,-7.27l-9.38 0 0 20.96 2.85 0 0 -6.42 5.3 0c0.46,0.03 0.91,0.43 1.2,1.14l1.31 2.8c0.77,1.65 2.17,2.56 3.71,2.56l1.99 -0.28 0 -2.57zm-6.98 -15.48c2.36,0 4.42,2.17 4.42,4.56 0,2.37 -2.09,4.56 -4.42,4.56l-6.53 0 0 -9.12 6.53 0zm13.73 -2.71l-2.85 0 0 20.96 2.85 0 0 -20.96zm0.8 -4.99l-2.62 0 -1.83 3.25 1.86 0 2.59 -3.25zm18.36 10.38l2.51 0 0 -3.45c-2.28,-1.42 -4.62,-2.05 -7.13,-2.05 -5.82,0 -10.83,4.73 -10.83,10.58 0,5.84 5.01,10.57 10.83,10.57 3.22,0 6.19,-1.45 8.21,-3.7l-2.02 -2.03c-1.43,1.71 -3.62,2.88 -6.19,2.88 -3.93,0 -7.98,-3.13 -7.98,-7.72 0,-4.6 4.05,-7.73 7.98,-7.73 1.6,0 3.05,0.23 4.28,0.83l0.34 1.82zm10.15 -5.39l-2.86 0 0 20.96 2.86 0 0 -20.96zm14.25 2.77c3.85,0 8.01,3.02 8.01,7.7 0,3.9 -3.39,7.72 -8.01,7.72 -3.94,0 -7.99,-3.13 -7.99,-7.72 0,-3.91 3.42,-7.7 7.99,-7.7zm0 -2.85c-5.82,0 -10.84,4.73 -10.84,10.55 0,5.84 5.02,10.57 10.84,10.57 5.84,0 10.86,-4.73 10.86,-10.57 0,-5.82 -5.02,-10.55 -10.86,-10.55zm-185.23 47.3l0 2.57 31.22 0 0 -2.57 -31.22 0zm8.84 -15.82l5.99 0 0 -2.57 -14.83 0 0 2.57 5.99 0 0 12.69 2.85 0 0 -12.69zm14.51 -2.65c-4.22,0 -7.9,3.47 -7.9,7.69 0,4.25 3.68,7.73 7.9,7.73 4.28,0 7.96,-3.48 7.96,-7.73 0,-4.22 -3.68,-7.69 -7.96,-7.69l0 0zm0 2.85c2.74,0 5.11,2.19 5.11,4.84 0,2.69 -2.37,4.88 -5.11,4.88 -2.71,0 -5.04,-2.19 -5.04,-4.88 0,-2.65 2.33,-4.84 5.04,-4.84zm27.94 15.42l-2 0c-0.45,0 -0.88,-0.4 -1.19,-1.11l-1.34 -2.96c2.79,-1 4.81,-3.71 4.81,-6.85 0,-4.02 -3.24,-7.27 -7.26,-7.27l-9.39 0 0 20.96 2.86 0 0 -6.42 5.3 0c0.46,0.03 0.91,0.43 1.2,1.14l1.31 2.8c0.77,1.65 2.16,2.56 3.7,2.56l2 -0.28 0 -2.57zm-6.98 -15.48c2.36,0 4.41,2.17 4.41,4.56 0,2.37 -2.08,4.56 -4.41,4.56l-6.53 0 0 -9.12 6.53 0zm26.96 15.48l-1.99 0c-0.46,0 -0.89,-0.4 -1.2,-1.11l-1.34 -2.96c2.79,-1 4.82,-3.71 4.82,-6.85 0,-4.02 -3.25,-7.27 -7.27,-7.27l-9.38 0 0 20.96 2.85 0 0 -6.42 5.3 0c0.46,0.03 0.91,0.43 1.2,1.14l1.31 2.8c0.77,1.65 2.17,2.56 3.71,2.56l1.99 -0.28 0 -2.57zm-6.98 -15.48c2.36,0 4.42,2.17 4.42,4.56 0,2.37 -2.09,4.56 -4.42,4.56l-6.53 0 0 -9.12 6.53 0zm13.45 15.83l0 -7.22 9.98 0 0 -2.28 -9.98 0 0 -6.76 12.26 0 0 -2.28 -15.11 0 0 20.96 15.97 0 0 -2.42 -13.12 0zm26.03 -15.8c1.68,0 3.59,0.26 5.07,0.94l0.34 1.71 2.51 0 0 -3.45c-2.28,-1.42 -5.41,-2.05 -7.92,-2.05 -3.51,0 -8.7,1.68 -8.7,5.76 0,4.73 4.9,5.67 9.12,5.67 3.2,0 5.54,0.8 5.54,3.34 0,1.74 -2.34,3.53 -6.16,3.53 -3.23,0 -5.76,-1.11 -7.62,-2.93l-1.68 2.48c2.34,2.05 5.39,3.3 9.33,3.3 4.44,0 9.29,-2.45 9.29,-6.38 0,-5.05 -4.22,-6.28 -8.84,-6.28 -3.13,0 -5.81,-0.54 -5.81,-2.73 0,-1.6 2.68,-2.91 5.53,-2.91l0 0z"/>
   <path class="fil0" d="M96.72 74.47c0,-1.31 1.16,-2.2 2.28,-2.2 0.45,0 0.86,0.07 1.21,0.24l0.1 0.51 0.72 0 0 -0.98c-0.65,-0.4 -1.32,-0.58 -2.03,-0.58 -1.66,0 -3.09,1.35 -3.09,3.01 0,1.66 1.43,3.01 3.09,3.01 0.91,0 1.76,-0.41 2.33,-1.06l0 -2.4 -2.76 0 0 0.73 1.95 0 0 1.34c-0.4,0.35 -0.92,0.58 -1.52,0.58 -1.12,0 -2.28,-0.89 -2.28,-2.2zm8.08 -2.98l-0.81 0 0 5.97 0.81 0 0 -5.97zm6.76 5.28l-0.18 0 -2.48 -5.28 -1.52 0 0 5.97 0.81 0 0 -5.28 0.18 0 2.48 5.28 1.52 0 0 -5.97 -0.81 0 0 5.28zm4.2 0l0 -2.06 2.84 0 0 -0.65 -2.84 0 0 -1.92 3.49 0 0 -0.65 -4.3 0 0 5.97 4.54 0 0 -0.69 -3.73 0zm10.49 -3.75l0.71 0 0 -0.98c-0.65,-0.4 -1.31,-0.58 -2.03,-0.58 -1.65,0 -3.08,1.35 -3.08,3.01 0,1.66 1.43,3.01 3.08,3.01 0.92,0 1.76,-0.41 2.34,-1.06l-0.58 -0.57c-0.4,0.49 -1.03,0.82 -1.76,0.82 -1.12,0 -2.27,-0.89 -2.27,-2.2 0,-1.31 1.15,-2.2 2.27,-2.2 0.46,0 0.87,0.07 1.22,0.24l0.1 0.51zm6.4 -0.74c1.1,0 2.28,0.86 2.28,2.19 0,1.11 -0.96,2.2 -2.28,2.2 -1.12,0 -2.27,-0.89 -2.27,-2.2 0,-1.11 0.97,-2.19 2.27,-2.19zm0 -0.81c-1.65,0 -3.08,1.34 -3.08,3 0,1.66 1.43,3.01 3.08,3.01 1.67,0 3.09,-1.35 3.09,-3.01 0,-1.66 -1.42,-3 -3.09,-3zm6.42 5.26l0 -5.24 -0.81 0 0 5.97 4.38 0 0 -0.73 -3.57 0zm8.77 -4.45c1.09,0 2.28,0.86 2.28,2.19 0,1.11 -0.97,2.2 -2.28,2.2 -1.12,0 -2.27,-0.89 -2.27,-2.2 0,-1.11 0.97,-2.19 2.27,-2.19zm0 -0.81c-1.66,0 -3.09,1.34 -3.09,3 0,1.66 1.43,3.01 3.09,3.01 1.66,0 3.09,-1.35 3.09,-3.01 0,-1.66 -1.43,-3 -3.09,-3zm6.28 3c0,-1.31 1.15,-2.2 2.27,-2.2 0.46,0 0.87,0.07 1.22,0.24l0.1 0.51 0.71 0 0 -0.98c-0.65,-0.4 -1.31,-0.58 -2.03,-0.58 -1.65,0 -3.08,1.35 -3.08,3.01 0,1.66 1.43,3.01 3.08,3.01 0.92,0 1.76,-0.41 2.34,-1.06l0 -2.4 -2.76 0 0 0.73 1.95 0 0 1.34c-0.4,0.35 -0.93,0.58 -1.53,0.58 -1.12,0 -2.27,-0.89 -2.27,-2.2zm8.08 -2.98l-0.81 0 0 5.97 0.81 0 0 -5.97zm3.79 4.33l2.92 0 0.49 1.64 0.81 0 -1.79 -5.97 -1.94 0 -1.79 5.97 0.81 0 0.49 -1.64zm1.08 -3.6l0.76 0 0.86 2.87 -2.48 0 0.86 -2.87zm8.96 4.55l0 -2.06 2.84 0 0 -0.65 -2.84 0 0 -1.92 3.49 0 0 -0.65 -4.3 0 0 5.97 4.54 0 0 -0.69 -3.73 0zm11.58 -4.55l2.11 0 0 -0.73 -5.03 0 0 0.73 2.11 0 0 5.24 0.81 0 0 -5.24zm5.42 4.55l0 -2.06 2.84 0 0 -0.65 -2.84 0 0 -1.92 3.48 0 0 -0.65 -4.3 0 0 5.97 4.55 0 0 -0.69 -3.73 0zm10.96 -0.1l-0.57 0c-0.13,0 -0.25,-0.12 -0.34,-0.32l-0.38 -0.84c0.8,-0.29 1.37,-1.06 1.37,-1.95 0,-1.14 -0.92,-2.07 -2.07,-2.07l-2.67 0 0 5.97 0.81 0 0 -1.83 1.51 0c0.13,0.01 0.26,0.12 0.34,0.32l0.38 0.8c0.22,0.47 0.62,0.73 1.05,0.73l0.57 -0.08 0 -0.73zm-1.99 -4.41c0.68,0 1.26,0.62 1.26,1.3 0,0.67 -0.59,1.3 -1.26,1.3l-1.86 0 0 -2.6 1.86 0zm5.54 3.56l2.92 0 0.49 1.64 0.81 0 -1.79 -5.97 -1.94 0 -1.79 5.97 0.81 0 0.49 -1.64zm1.08 -3.6l0.76 0 0.86 2.87 -2.48 0 0.86 -2.87zm5.71 5.24l0.81 0 0 -1.83 1.86 0c1.15,0 2.07,-0.93 2.07,-2.07 0,-1.14 -0.92,-2.07 -2.07,-2.07l-2.67 0 0 5.97zm2.67 -5.2c0.68,0 1.26,0.62 1.26,1.3 0,0.67 -0.59,1.3 -1.26,1.3l-1.86 0 0 -2.6 1.86 0zm5.54 -0.77l-0.81 0 0 5.97 0.81 0 0 -5.97zm3.79 4.33l2.92 0 0.49 1.64 0.81 0 -1.78 -5.97 -1.95 0 -1.79 5.97 0.81 0 0.49 -1.64zm1.08 -3.6l0.76 0 0.86 2.87 -2.48 0 0.86 -2.87zm8.96 1.8l0 -2.53 -0.81 0 0 5.97 0.81 0 0 -2.71 3.41 0 0 2.71 0.81 0 0 -5.97 -0.81 0 0 2.53 -3.41 0zm9.82 -1.74c1.1,0 2.28,0.86 2.28,2.19 0,1.11 -0.96,2.2 -2.28,2.2 -1.12,0 -2.27,-0.89 -2.27,-2.2 0,-1.11 0.97,-2.19 2.27,-2.19zm0 -0.81c-1.65,0 -3.08,1.34 -3.08,3 0,1.66 1.43,3.01 3.08,3.01 1.67,0 3.09,-1.35 3.09,-3.01 0,-1.66 -1.42,-3 -3.09,-3zm10.27 5.2l-0.57 0c-0.13,0 -0.25,-0.12 -0.34,-0.32l-0.38 -0.84c0.79,-0.29 1.37,-1.06 1.37,-1.95 0,-1.14 -0.92,-2.07 -2.07,-2.07l-2.67 0 0 5.97 0.81 0 0 -1.83 1.51 0c0.13,0.01 0.26,0.12 0.34,0.32l0.38 0.8c0.22,0.47 0.61,0.73 1.05,0.73l0.57 -0.08 0 -0.73zm-1.99 -4.41c0.67,0 1.26,0.62 1.26,1.3 0,0.67 -0.59,1.3 -1.26,1.3l-1.86 0 0 -2.6 1.86 0zm7.53 2.32l-0.08 0 -1.42 -3.09 -1.47 0 0 5.97 0.81 0 0 -5.28 0.08 0 1.43 3.08 1.24 0 1.42 -3.08 0.08 0 0 5.28 0.81 0 0 -5.97 -1.47 0 -1.43 3.09zm5.47 2.15l0 0.73 9.18 0 0 -0.73 -9.18 0zm2.23 -5.26c-1.2,0 -2.25,0.99 -2.25,2.19 0,1.21 1.05,2.2 2.25,2.2 1.22,0 2.26,-0.99 2.26,-2.2 0,-1.2 -1.04,-2.19 -2.26,-2.19zm0 0.81c0.78,0 1.45,0.62 1.45,1.38 0,0.76 -0.67,1.39 -1.45,1.39 -0.77,0 -1.44,-0.63 -1.44,-1.39 0,-0.76 0.67,-1.38 1.44,-1.38zm5.43 3.55l1.52 0 0 -4.34 -0.81 0 0 3.65 -0.19 0 -1.41 -3.65 -1.53 0 0 4.34 0.81 0 0 -3.65 0.19 0 1.42 3.65zm5.4 -0.01l2.92 0 0.48 1.64 0.82 0 -1.79 -5.97 -1.95 0 -1.78 5.97 0.81 0 0.49 -1.64zm1.08 -3.6l0.76 0 0.86 2.87 -2.49 0 0.87 -2.87zm6.52 4.51l0 -5.24 -0.81 0 0 5.97 4.38 0 0 -0.73 -3.57 0z"/>
  </g>
 </g>
</svg>
